<?xml version="1.0" encoding="iso-8859-1"?>
<!-- Uploaded to: SVG Repo, www.svgrepo.com, Generator: SVG Repo Mixer Tools -->
<!DOCTYPE svg PUBLIC "-//W3C//DTD SVG 1.1//EN" "http://www.w3.org/Graphics/SVG/1.1/DTD/svg11.dtd">
<svg fill="#000000" version="1.1" id="Capa_1" xmlns="http://www.w3.org/2000/svg" xmlns:xlink="http://www.w3.org/1999/xlink" 
	 width="800px" height="800px" viewBox="0 0 38.672 38.671"
	 xml:space="preserve">
<g>
	<path d="M9.399,22.618v-4.219H27.32c0.516,0,0.932-0.416,0.932-0.931V7.817c0-0.514-0.416-0.93-0.932-0.93H9.399V2.669
		c0-0.398-0.256-0.754-0.633-0.881c-0.38-0.127-0.797,0.002-1.037,0.32l-7.541,9.975C0.063,12.249,0,12.446,0,12.644
		c0,0.198,0.063,0.396,0.188,0.562l7.541,9.973c0.24,0.318,0.657,0.447,1.037,0.32C9.145,23.372,9.399,23.019,9.399,22.618z
		 M2.095,12.645L7.54,5.44v2.379c0,0.514,0.416,0.93,0.93,0.93h17.923v7.792H8.47c-0.514,0-0.93,0.416-0.93,0.93v2.38L2.095,12.645z
		 M29.904,36.884c-0.377-0.127-0.633-0.48-0.633-0.881v-4.219h-17.92c-0.515,0-0.931-0.416-0.931-0.931v-9.65
		c0-0.514,0.416-0.93,0.931-0.93h17.92v-4.22c0-0.399,0.256-0.754,0.633-0.881c0.38-0.127,0.797,0.002,1.037,0.32l7.543,9.974
		c0.25,0.332,0.25,0.789,0,1.121l-7.543,9.975C30.701,36.882,30.284,37.011,29.904,36.884z"/>
</g>
</svg>